<svg width="18" height="17" viewBox="0 0 18 17" fill="none" xmlns="http://www.w3.org/2000/svg">
<g id="Group 140">
<path id="Vector" d="M14.525 5.95C16.1655 5.95 17.5 4.6155 17.5 2.975C17.5 1.3345 16.1655 0 14.525 0C12.8845 0 11.55 1.3345 11.55 2.975C11.55 4.6155 12.8845 5.95 14.525 5.95ZM15.8 12.75V7.4715C15.375 7.5905 14.95 7.65 14.525 7.65C14.3805 7.65 14.2445 7.65 14.1 7.65V12.75C14.1 14.161 12.961 15.3 11.55 15.3H4.75C3.339 15.3 2.2 14.161 2.2 12.75V5.95C2.2 4.539 3.339 3.4 4.75 3.4H9.85C9.85 3.264 9.85 3.1195 9.85 2.975C9.85 2.55 9.9095 2.125 10.0285 1.7H4.75C2.404 1.7 0.5 3.604 0.5 5.95V12.75C0.5 15.096 2.404 17 4.75 17H11.55C13.896 17 15.8 15.096 15.8 12.75Z" fill="black"/>
<path id="Vector_2" d="M17.4988 2.975C17.4988 4.6155 16.1643 5.95 14.5238 5.95C12.8833 5.95 11.5488 4.6155 11.5488 2.975C11.5488 1.3345 12.8833 0 14.5238 0C16.1643 0 17.4988 1.3345 17.4988 2.975Z" fill="#EA3C12"/>
</g>
</svg>
