<svg xmlns="http://www.w3.org/2000/svg" width="32" height="32" viewBox="0 0 32 32" fill="none">
  <g clip-path="url(#clip0_6_10631)">
    <path d="M24.4009 7.61336C23.8809 7.09336 23.0409 7.09336 22.5209 7.61336L16.0009 14.12L9.48094 7.60002C8.96094 7.08002 8.12094 7.08002 7.60094 7.60002C7.08094 8.12002 7.08094 8.96002 7.60094 9.48002L14.1209 16L7.60094 22.52C7.08094 23.04 7.08094 23.88 7.60094 24.4C8.12094 24.92 8.96094 24.92 9.48094 24.4L16.0009 17.88L22.5209 24.4C23.0409 24.92 23.8809 24.92 24.4009 24.4C24.9209 23.88 24.9209 23.04 24.4009 22.52L17.8809 16L24.4009 9.48002C24.9076 8.97336 24.9076 8.12002 24.4009 7.61336Z" fill="white"/>
  </g>
  <defs>
    <clipPath id="clip0_6_10631">
      <rect width="32" height="32" fill="white"/>
    </clipPath>
  </defs>
</svg>