<svg width="24" height="25" viewBox="0 0 24 25" fill="none" xmlns="http://www.w3.org/2000/svg">
<g id="notification" clip-path="url(#clip0_0_596)">
<path id="Vector" d="M18.6298 7.64C20.5984 7.64 22.1998 6.0386 22.1998 4.07C22.1998 2.1014 20.5984 0.5 18.6298 0.5C16.6612 0.5 15.0598 2.1014 15.0598 4.07C15.0598 6.0386 16.6612 7.64 18.6298 7.64ZM20.1598 15.8V9.4658C19.6498 9.6086 19.1398 9.68 18.6298 9.68C18.4564 9.68 18.2932 9.68 18.1198 9.68V15.8C18.1198 17.4932 16.753 18.86 15.0598 18.86H6.89981C5.2066 18.86 3.8398 17.4932 3.8398 15.8V7.64C3.8398 5.9468 5.2066 4.58 6.89981 4.58H13.0198C13.0198 4.4168 13.0198 4.2434 13.0198 4.07C13.0198 3.56 13.0912 3.05 13.234 2.54H6.89981C4.0846 2.54 1.7998 4.8248 1.7998 7.64V15.8C1.7998 18.6152 4.0846 20.9 6.89981 20.9H15.0598C17.875 20.9 20.1598 18.6152 20.1598 15.8Z" fill="black"/>
</g>
<defs>
<clipPath id="clip0_0_596">
<rect width="24" height="24" fill="white" transform="translate(0 0.5)"/>
</clipPath>
</defs>
</svg>
